<svg xmlns="http://www.w3.org/2000/svg"  viewBox="0 0 64 64" width="64px" height="64px" baseProfile="basic"><ellipse cx="32" cy="61" opacity=".3" rx="17.063" ry="3"/><path fill="#98c900" d="M47,8H20c-3.866,0-7,3.134-7,7v32c0,4.418,3.582,8,8,8h27.5c1.381,0,2.5-1.119,2.5-2.5l0,0 c0-1.381-1.119-2.5-2.5-2.5h-1.32v-8H49c1.105,0,2-0.895,2-2V12C51,9.791,49.209,8,47,8z"/><path fill="#ffe691" d="M48.68,50H22c-2.209,0-4-1.791-4-4s1.791-4,4-4h26.68c-0.356,0.667-1,2.089-1,4 C47.68,46.756,47.781,48.314,48.68,50z"/><path d="M51,52.5c0-1.381-1.119-2.5-2.5-2.5h0.18c-0.899-1.686-1-3.244-1-4c0-1.911,0.644-3.333,1-4H49 c1.105,0,2-0.895,2-2V23c-2.762,0-5,2.238-5,5v9.778c-0.717,0.455-1.318,1.093-1.732,1.87C43.229,41.597,42.68,43.794,42.68,46 c0,1.356,0.207,2.708,0.607,4H37c-2.762,0-5,2.238-5,5h16.5C49.881,55,51,53.881,51,52.5z" opacity=".15"/><path fill="#fff" d="M37,8H20c-3.866,0-7,3.134-7,7v19c2.762,0,5-2.238,5-5V15c0-1.103,0.897-2,2-2h12 C34.762,13,37,10.762,37,8z" opacity=".3"/><path fill="#fff" d="M16.5,18.5c-0.828,0-1.5-0.672-1.5-1.5v-1.995C15,12.245,17.245,10,20.005,10H22 c0.828,0,1.5,0.672,1.5,1.5S22.828,13,22,13h-1.995C18.899,13,18,13.899,18,15.005V17C18,17.828,17.328,18.5,16.5,18.5z"/><path fill="#548500" d="M43.036,26.035c2.343-2.343,2.66-5.826,0.707-7.778s-5.435-1.636-7.778,0.707	c-1.739,1.739-2.359,4.105-1.766,6.009l-8.624,8.624c-0.781,0.781-0.781,2.047,0,2.828s2.047,0.781,2.828,0l8.624-8.624	C38.93,28.394,41.296,27.775,43.036,26.035z"/><path fill="#548500" d="M21.819,17.246l-0.044,0.044c-2.359,2.359-2.359,6.182,0,8.541l3.778,3.778	c0.52,0.52,1.363,0.52,1.884,0l1.18-1.18l7.913,7.913c0.704,0.704,1.839,0.876,2.647,0.294c1.03-0.742,1.116-2.188,0.257-3.047	L23.089,17.246C22.738,16.895,22.169,16.895,21.819,17.246z"/></svg>