<svg xmlns="http://www.w3.org/2000/svg"  viewBox="0 0 48 48" width="48px" height="48px" baseProfile="basic"><path fill="#fca66c" d="M35,4H13c-2.757,0-5,2.243-5,5v31c0,0,1.897-3,3-3h29V9C40,6.243,37.757,4,35,4z"/><path fill="#324561" d="M39,45H12c-2.206,0-4-1.794-4-4v-1c0-2.206,1.794-4,4-4h27c0.553,0,1,0.448,1,1s-0.447,1-1,1H12	c-1.103,0-2,0.897-2,2v1c0,1.103,0.897,2,2,2h27c0.553,0,1,0.448,1,1S39.553,45,39,45z"/><path fill="#324561" d="M20,20h-2c-1.654,0-3-1.346-3-3v-7c0-0.553,0.447-1,1-1s1,0.447,1,1v7c0,0.552,0.448,1,1,1h2	c0.552,0,1-0.448,1-1v-7c0-0.553,0.447-1,1-1s1,0.447,1,1v7C23,18.654,21.654,20,20,20z"/><path fill="#324561" d="M19,17c-0.553,0-1-0.447-1-1v-6c0-0.553,0.447-1,1-1s1,0.447,1,1v6C20,16.553,19.553,17,19,17z"/><path fill="#324561" d="M19,33c-0.553,0-1-0.447-1-1V19c0-0.553,0.447-1,1-1s1,0.447,1,1v13C20,32.553,19.553,33,19,33z"/><path fill="#324561" d="M28,33c-0.553,0-1-0.447-1-1V10c0-0.385,0.221-0.734,0.566-0.901c0.345-0.167,0.758-0.12,1.059,0.12	C28.844,9.395,34,13.616,34,22c0,1.654-1.346,3-3,3c-0.553,0-1-0.447-1-1s0.447-1,1-1c0.552,0,1-0.448,1-1	c0-4.486-1.667-7.63-3-9.426V32C29,32.553,28.553,33,28,33z"/></svg>